<mxfile host="app.diagrams.net" agent="Mozilla/5.0 (Windows NT 10.0; Win64; x64) AppleWebKit/537.36 (KHTML, like Gecko) Chrome/135.0.0.0 Safari/537.36" version="26.2.14">
  <diagram name="ページ1" id="IMdF3h5-GWnTx5D7SRtW">
    <mxGraphModel dx="1426" dy="843" grid="1" gridSize="10" guides="1" tooltips="1" connect="1" arrows="1" fold="1" page="1" pageScale="1" pageWidth="827" pageHeight="1169" math="0" shadow="0">
      <root>
        <mxCell id="0" />
        <mxCell id="1" parent="0" />
        <mxCell id="N88NCLTqVvOpJBLEnSg0-42" value="&lt;div&gt;&lt;font style=&quot;font-size: 14px;&quot;&gt;AccessVBAフローチャート&lt;/font&gt;&lt;/div&gt;目的：AccessへExcelのデータ取込&lt;div&gt;対象テーブル名：Icube_&lt;/div&gt;&lt;div&gt;コード名：mod_inp4_Icube&lt;/div&gt;" style="text;html=1;align=left;verticalAlign=middle;resizable=0;points=[];autosize=1;strokeColor=none;fillColor=none;" parent="1" vertex="1">
          <mxGeometry x="5" y="12" width="210" height="70" as="geometry" />
        </mxCell>
        <mxCell id="N88NCLTqVvOpJBLEnSg0-50" value="&lt;div&gt;&lt;span style=&quot;font-size: 14px;&quot;&gt;制作日：2025/04/28&lt;/span&gt;&lt;/div&gt;&lt;div&gt;&lt;span style=&quot;font-size: 14px;&quot;&gt;編集日：&lt;/span&gt;&lt;/div&gt;" style="text;html=1;align=left;verticalAlign=middle;resizable=0;points=[];autosize=1;strokeColor=none;fillColor=none;" parent="1" vertex="1">
          <mxGeometry x="410" y="22" width="150" height="50" as="geometry" />
        </mxCell>
        <mxCell id="-maxtQ19_qDZCPLkTYbK-3" value="開始" style="rounded=1;whiteSpace=wrap;html=1;" vertex="1" parent="1">
          <mxGeometry x="62" y="770" width="250" height="50" as="geometry" />
        </mxCell>
        <mxCell id="-maxtQ19_qDZCPLkTYbK-4" value="&lt;div&gt;特定フィールドを除外&lt;/div&gt;&lt;div&gt;-------------------------&lt;/div&gt;&lt;div&gt;&lt;font style=&quot;font-size: 9px;&quot;&gt;mod_inp4_Icube.FieldExcluder&lt;/font&gt;&lt;/div&gt;" style="rounded=0;whiteSpace=wrap;html=1;" vertex="1" parent="1">
          <mxGeometry x="62" y="840" width="250" height="50" as="geometry" />
        </mxCell>
        <mxCell id="-maxtQ19_qDZCPLkTYbK-5" value="&lt;div&gt;仮テーブル2へデータ格納&lt;/div&gt;&lt;div&gt;-------------------------&lt;/div&gt;&lt;div&gt;&lt;font size=&quot;1&quot;&gt;mod_inp4__Icube.TableTransfer&lt;/font&gt;&lt;/div&gt;" style="rounded=0;whiteSpace=wrap;html=1;" vertex="1" parent="1">
          <mxGeometry x="62" y="909" width="250" height="50" as="geometry" />
        </mxCell>
        <mxCell id="-maxtQ19_qDZCPLkTYbK-6" value="&lt;div&gt;不要レコードを削除&lt;/div&gt;&lt;div&gt;-------------------------&lt;/div&gt;&lt;div&gt;&lt;font style=&quot;font-size: 9px;&quot;&gt;acc_clsDataCleaner.DeleteUnnecessaryRecords&lt;/font&gt;&lt;/div&gt;" style="rounded=0;whiteSpace=wrap;html=1;" vertex="1" parent="1">
          <mxGeometry x="62" y="980" width="250" height="50" as="geometry" />
        </mxCell>
        <mxCell id="-maxtQ19_qDZCPLkTYbK-7" value="&lt;div&gt;空欄補正を実施&lt;/div&gt;&lt;div&gt;-------------------------&lt;/div&gt;&lt;div&gt;&lt;font size=&quot;1&quot;&gt;acc_clsDataCleaner.FillBlankFields&lt;/font&gt;&lt;/div&gt;" style="rounded=0;whiteSpace=wrap;html=1;" vertex="1" parent="1">
          <mxGeometry x="62" y="1052" width="250" height="50" as="geometry" />
        </mxCell>
        <mxCell id="-maxtQ19_qDZCPLkTYbK-8" value="" style="endArrow=classic;html=1;rounded=0;entryX=0.5;entryY=0;entryDx=0;entryDy=0;exitX=0.5;exitY=1;exitDx=0;exitDy=0;" edge="1" parent="1">
          <mxGeometry width="50" height="50" relative="1" as="geometry">
            <mxPoint x="186" y="890" as="sourcePoint" />
            <mxPoint x="186" y="910" as="targetPoint" />
          </mxGeometry>
        </mxCell>
        <mxCell id="-maxtQ19_qDZCPLkTYbK-9" value="&lt;div&gt;日付型データチェック・補正&lt;/div&gt;&lt;div&gt;&lt;span style=&quot;background-color: transparent; color: light-dark(rgb(0, 0, 0), rgb(255, 255, 255));&quot;&gt;-------------------------&lt;/span&gt;&lt;/div&gt;&lt;div&gt;&lt;font style=&quot;font-size: 9px;&quot;&gt;acc_clsDataCleaner.ValidateAndFixDates&lt;/font&gt;&lt;/div&gt;" style="rounded=0;whiteSpace=wrap;html=1;" vertex="1" parent="1">
          <mxGeometry x="62" y="1194" width="250" height="50" as="geometry" />
        </mxCell>
        <mxCell id="-maxtQ19_qDZCPLkTYbK-10" value="&lt;div&gt;クリーニング完了処理&lt;/div&gt;&lt;div&gt;-------------------------&lt;/div&gt;&lt;div&gt;&lt;font size=&quot;1&quot;&gt;mod_inp4__Icube.CleaningComplete&lt;/font&gt;&lt;/div&gt;" style="rounded=0;whiteSpace=wrap;html=1;" vertex="1" parent="1">
          <mxGeometry x="62" y="1265" width="250" height="50" as="geometry" />
        </mxCell>
        <mxCell id="-maxtQ19_qDZCPLkTYbK-11" value="終了" style="rounded=1;whiteSpace=wrap;html=1;" vertex="1" parent="1">
          <mxGeometry x="60" y="1336" width="250" height="50" as="geometry" />
        </mxCell>
        <mxCell id="-maxtQ19_qDZCPLkTYbK-12" value="" style="edgeStyle=orthogonalEdgeStyle;rounded=0;orthogonalLoop=1;jettySize=auto;html=1;" edge="1" parent="1">
          <mxGeometry relative="1" as="geometry">
            <mxPoint x="186" y="959" as="sourcePoint" />
            <mxPoint x="186" y="980" as="targetPoint" />
          </mxGeometry>
        </mxCell>
        <mxCell id="-maxtQ19_qDZCPLkTYbK-13" value="" style="edgeStyle=orthogonalEdgeStyle;rounded=0;orthogonalLoop=1;jettySize=auto;html=1;" edge="1" parent="1">
          <mxGeometry relative="1" as="geometry">
            <mxPoint x="186" y="1030" as="sourcePoint" />
            <mxPoint x="186" y="1051" as="targetPoint" />
          </mxGeometry>
        </mxCell>
        <mxCell id="-maxtQ19_qDZCPLkTYbK-14" value="" style="edgeStyle=orthogonalEdgeStyle;rounded=0;orthogonalLoop=1;jettySize=auto;html=1;" edge="1" parent="1">
          <mxGeometry relative="1" as="geometry">
            <mxPoint x="186" y="1173" as="sourcePoint" />
            <mxPoint x="186" y="1194" as="targetPoint" />
          </mxGeometry>
        </mxCell>
        <mxCell id="-maxtQ19_qDZCPLkTYbK-15" value="" style="edgeStyle=orthogonalEdgeStyle;rounded=0;orthogonalLoop=1;jettySize=auto;html=1;" edge="1" parent="1">
          <mxGeometry relative="1" as="geometry">
            <mxPoint x="186" y="1244" as="sourcePoint" />
            <mxPoint x="186" y="1265" as="targetPoint" />
          </mxGeometry>
        </mxCell>
        <mxCell id="-maxtQ19_qDZCPLkTYbK-16" value="" style="edgeStyle=orthogonalEdgeStyle;rounded=0;orthogonalLoop=1;jettySize=auto;html=1;" edge="1" parent="1">
          <mxGeometry relative="1" as="geometry">
            <mxPoint x="186" y="1315" as="sourcePoint" />
            <mxPoint x="186" y="1336" as="targetPoint" />
          </mxGeometry>
        </mxCell>
        <mxCell id="-maxtQ19_qDZCPLkTYbK-21" value="" style="endArrow=classic;html=1;rounded=0;entryX=0.5;entryY=0;entryDx=0;entryDy=0;exitX=0.5;exitY=1;exitDx=0;exitDy=0;" edge="1" parent="1">
          <mxGeometry width="50" height="50" relative="1" as="geometry">
            <mxPoint x="186" y="820" as="sourcePoint" />
            <mxPoint x="186" y="840" as="targetPoint" />
          </mxGeometry>
        </mxCell>
        <mxCell id="-maxtQ19_qDZCPLkTYbK-22" value="&lt;div&gt;データ型補正を実施&lt;/div&gt;&lt;div&gt;-------------------------&lt;/div&gt;&lt;div&gt;&lt;font style=&quot;font-size: 9px;&quot;&gt;acc_clsDataCleaner.CorrectFieldTypes&lt;/font&gt;&lt;/div&gt;" style="rounded=0;whiteSpace=wrap;html=1;" vertex="1" parent="1">
          <mxGeometry x="62" y="1123" width="250" height="50" as="geometry" />
        </mxCell>
        <mxCell id="-maxtQ19_qDZCPLkTYbK-23" value="" style="edgeStyle=orthogonalEdgeStyle;rounded=0;orthogonalLoop=1;jettySize=auto;html=1;" edge="1" parent="1">
          <mxGeometry relative="1" as="geometry">
            <mxPoint x="186" y="1101" as="sourcePoint" />
            <mxPoint x="186" y="1122" as="targetPoint" />
          </mxGeometry>
        </mxCell>
        <mxCell id="-maxtQ19_qDZCPLkTYbK-24" value="&lt;div&gt;■仮テーブルクリーニング処理&lt;/div&gt;" style="text;html=1;align=left;verticalAlign=middle;resizable=0;points=[];autosize=1;strokeColor=none;fillColor=none;fontSize=9;" vertex="1" parent="1">
          <mxGeometry x="60" y="750" width="150" height="20" as="geometry" />
        </mxCell>
        <mxCell id="N88NCLTqVvOpJBLEnSg0-1" value="開始" style="rounded=1;whiteSpace=wrap;html=1;" parent="1" vertex="1">
          <mxGeometry x="61" y="113" width="250" height="50" as="geometry" />
        </mxCell>
        <mxCell id="N88NCLTqVvOpJBLEnSg0-2" value="&lt;div&gt;ファイル選択ダイアログ表示&lt;/div&gt;&lt;div&gt;-------------------------&lt;/div&gt;&lt;div&gt;&lt;font style=&quot;font-size: 9px;&quot;&gt;mod_inp4_Icube.FileSelect&lt;/font&gt;&lt;/div&gt;" style="rounded=0;whiteSpace=wrap;html=1;" parent="1" vertex="1">
          <mxGeometry x="61" y="183" width="250" height="50" as="geometry" />
        </mxCell>
        <mxCell id="N88NCLTqVvOpJBLEnSg0-4" value="&lt;div&gt;Excelファイルを開く&lt;/div&gt;&lt;div&gt;-------------------------&lt;/div&gt;&lt;div&gt;&lt;font style=&quot;font-size: 9px;&quot;&gt;xl_clsWorkbookManager.OpenWorkbook&lt;/font&gt;&lt;/div&gt;" style="rounded=0;whiteSpace=wrap;html=1;" parent="1" vertex="1">
          <mxGeometry x="61" y="252" width="250" height="50" as="geometry" />
        </mxCell>
        <mxCell id="N88NCLTqVvOpJBLEnSg0-5" value="&lt;div&gt;1枚目シートを選択&lt;/div&gt;&lt;div&gt;-------------------------&lt;/div&gt;&lt;div&gt;&lt;font style=&quot;font-size: 9px;&quot;&gt;xl_clsWorkbookManager.GetFirstSheet&lt;/font&gt;&lt;/div&gt;" style="rounded=0;whiteSpace=wrap;html=1;" parent="1" vertex="1">
          <mxGeometry x="61" y="323" width="250" height="50" as="geometry" />
        </mxCell>
        <mxCell id="N88NCLTqVvOpJBLEnSg0-6" value="&lt;div&gt;タイトル＆データ範囲を一括取得&lt;/div&gt;&lt;div&gt;-------------------------&lt;/div&gt;&lt;div&gt;&lt;font style=&quot;font-size: 9px;&quot;&gt;xl_clsRangeAccessor.RangeToArray&lt;/font&gt;&lt;/div&gt;" style="rounded=0;whiteSpace=wrap;html=1;" parent="1" vertex="1">
          <mxGeometry x="61" y="395" width="250" height="50" as="geometry" />
        </mxCell>
        <mxCell id="N88NCLTqVvOpJBLEnSg0-10" value="" style="endArrow=classic;html=1;rounded=0;entryX=0.5;entryY=0;entryDx=0;entryDy=0;exitX=0.5;exitY=1;exitDx=0;exitDy=0;" parent="1" edge="1">
          <mxGeometry width="50" height="50" relative="1" as="geometry">
            <mxPoint x="185" y="233" as="sourcePoint" />
            <mxPoint x="185" y="253" as="targetPoint" />
          </mxGeometry>
        </mxCell>
        <mxCell id="N88NCLTqVvOpJBLEnSg0-16" value="&lt;div&gt;仮テーブルにデータ登録&lt;/div&gt;&lt;div&gt;-------------------------&lt;/div&gt;&lt;div&gt;&lt;font style=&quot;font-size: 9px;&quot;&gt;acc_clsExcelImporter.ImportFromArray&lt;/font&gt;&lt;/div&gt;" style="rounded=0;whiteSpace=wrap;html=1;" parent="1" vertex="1">
          <mxGeometry x="61" y="537" width="250" height="50" as="geometry" />
        </mxCell>
        <mxCell id="N88NCLTqVvOpJBLEnSg0-18" value="&lt;div&gt;Excelファイルを閉じる&lt;/div&gt;&lt;div&gt;-------------------------&lt;/div&gt;&lt;div&gt;&lt;font style=&quot;font-size: 9px;&quot;&gt;xl_clsWorkbookManager.CloseWorkbook&lt;/font&gt;&lt;/div&gt;" style="rounded=0;whiteSpace=wrap;html=1;" parent="1" vertex="1">
          <mxGeometry x="61" y="608" width="250" height="50" as="geometry" />
        </mxCell>
        <mxCell id="N88NCLTqVvOpJBLEnSg0-24" value="終了" style="rounded=1;whiteSpace=wrap;html=1;" parent="1" vertex="1">
          <mxGeometry x="59" y="679" width="250" height="50" as="geometry" />
        </mxCell>
        <mxCell id="N88NCLTqVvOpJBLEnSg0-29" value="" style="edgeStyle=orthogonalEdgeStyle;rounded=0;orthogonalLoop=1;jettySize=auto;html=1;" parent="1" edge="1">
          <mxGeometry relative="1" as="geometry">
            <mxPoint x="185" y="302" as="sourcePoint" />
            <mxPoint x="185" y="323" as="targetPoint" />
          </mxGeometry>
        </mxCell>
        <mxCell id="N88NCLTqVvOpJBLEnSg0-30" value="" style="edgeStyle=orthogonalEdgeStyle;rounded=0;orthogonalLoop=1;jettySize=auto;html=1;" parent="1" edge="1">
          <mxGeometry relative="1" as="geometry">
            <mxPoint x="185" y="373" as="sourcePoint" />
            <mxPoint x="185" y="394" as="targetPoint" />
          </mxGeometry>
        </mxCell>
        <mxCell id="N88NCLTqVvOpJBLEnSg0-31" value="" style="edgeStyle=orthogonalEdgeStyle;rounded=0;orthogonalLoop=1;jettySize=auto;html=1;" parent="1" edge="1">
          <mxGeometry relative="1" as="geometry">
            <mxPoint x="185" y="516" as="sourcePoint" />
            <mxPoint x="185" y="537" as="targetPoint" />
          </mxGeometry>
        </mxCell>
        <mxCell id="N88NCLTqVvOpJBLEnSg0-32" value="" style="edgeStyle=orthogonalEdgeStyle;rounded=0;orthogonalLoop=1;jettySize=auto;html=1;" parent="1" edge="1">
          <mxGeometry relative="1" as="geometry">
            <mxPoint x="185" y="587" as="sourcePoint" />
            <mxPoint x="185" y="608" as="targetPoint" />
          </mxGeometry>
        </mxCell>
        <mxCell id="N88NCLTqVvOpJBLEnSg0-33" value="" style="edgeStyle=orthogonalEdgeStyle;rounded=0;orthogonalLoop=1;jettySize=auto;html=1;" parent="1" edge="1">
          <mxGeometry relative="1" as="geometry">
            <mxPoint x="185" y="658" as="sourcePoint" />
            <mxPoint x="185" y="679" as="targetPoint" />
          </mxGeometry>
        </mxCell>
        <mxCell id="N88NCLTqVvOpJBLEnSg0-35" value="&lt;font&gt;ユーザーがファイルを選択&lt;/font&gt;" style="shape=callout;whiteSpace=wrap;html=1;perimeter=calloutPerimeter;position2=0;fontSize=9;fillColor=#f5f5f5;fontColor=#333333;strokeColor=#666666;" parent="1" vertex="1">
          <mxGeometry x="313" y="183" width="130" height="50" as="geometry" />
        </mxCell>
        <mxCell id="N88NCLTqVvOpJBLEnSg0-36" value="&lt;font&gt;拡張子：xlsx&lt;/font&gt;&lt;span style=&quot;background-color: transparent; color: light-dark(rgb(0, 0, 0), rgb(255, 255, 255));&quot;&gt;が対象&lt;/span&gt;" style="shape=callout;whiteSpace=wrap;html=1;perimeter=calloutPerimeter;position2=0;fillColor=#f5f5f5;strokeColor=#666666;fontColor=#333333;fontSize=9;" parent="1" vertex="1">
          <mxGeometry x="313" y="252" width="130" height="50" as="geometry" />
        </mxCell>
        <mxCell id="N88NCLTqVvOpJBLEnSg0-37" value="&lt;div&gt;仮テーブル登録まとめ&lt;/div&gt;タイトル&lt;div&gt;・5行目&lt;/div&gt;&lt;div&gt;・B(2)列からEK(141)列&lt;/div&gt;&lt;div&gt;データ&lt;/div&gt;&lt;div&gt;・6行目からB列の最終行&lt;/div&gt;&lt;div&gt;・列はタイトル同じ範囲&lt;/div&gt;" style="rounded=0;whiteSpace=wrap;html=1;dashed=1;fillColor=#f5f5f5;strokeColor=#666666;align=left;fontSize=9;fontColor=#333333;verticalAlign=top;" parent="1" vertex="1">
          <mxGeometry x="313" y="395" width="170" height="87" as="geometry" />
        </mxCell>
        <mxCell id="N88NCLTqVvOpJBLEnSg0-38" value="&lt;span&gt;仮テーブルは事前に用意しておく&lt;/span&gt;&lt;div&gt;&lt;span&gt;テーブル名：&lt;/span&gt;&lt;span style=&quot;background-color: transparent;&quot;&gt;tbl_Temp_Icube_Import&lt;/span&gt;&lt;/div&gt;&lt;div&gt;データ型は全てテキスト型&lt;/div&gt;" style="shape=callout;whiteSpace=wrap;html=1;perimeter=calloutPerimeter;position2=1;fillColor=#f5f5f5;strokeColor=#666666;direction=west;fontColor=#333333;fontSize=9;align=left;" parent="1" vertex="1">
          <mxGeometry x="313" y="570" width="160" height="70" as="geometry" />
        </mxCell>
        <mxCell id="N88NCLTqVvOpJBLEnSg0-49" value="" style="endArrow=classic;html=1;rounded=0;entryX=0.5;entryY=0;entryDx=0;entryDy=0;exitX=0.5;exitY=1;exitDx=0;exitDy=0;" parent="1" edge="1">
          <mxGeometry width="50" height="50" relative="1" as="geometry">
            <mxPoint x="185" y="163" as="sourcePoint" />
            <mxPoint x="185" y="183" as="targetPoint" />
          </mxGeometry>
        </mxCell>
        <mxCell id="N88NCLTqVvOpJBLEnSg0-52" value="&lt;div&gt;配列タイトル置換え&lt;/div&gt;&lt;div&gt;-------------------------&lt;/div&gt;&lt;div&gt;&lt;br&gt;&lt;/div&gt;" style="rounded=0;whiteSpace=wrap;html=1;" parent="1" vertex="1">
          <mxGeometry x="61" y="466" width="250" height="50" as="geometry" />
        </mxCell>
        <mxCell id="N88NCLTqVvOpJBLEnSg0-53" value="" style="edgeStyle=orthogonalEdgeStyle;rounded=0;orthogonalLoop=1;jettySize=auto;html=1;" parent="1" edge="1">
          <mxGeometry relative="1" as="geometry">
            <mxPoint x="185" y="444" as="sourcePoint" />
            <mxPoint x="185" y="465" as="targetPoint" />
          </mxGeometry>
        </mxCell>
        <mxCell id="N88NCLTqVvOpJBLEnSg0-54" value="&lt;div&gt;■仮テーブル取込処理フローチャート&lt;/div&gt;" style="text;html=1;align=left;verticalAlign=middle;resizable=0;points=[];autosize=1;strokeColor=none;fillColor=none;fontSize=9;" parent="1" vertex="1">
          <mxGeometry x="59" y="93" width="170" height="20" as="geometry" />
        </mxCell>
        <mxCell id="N88NCLTqVvOpJBLEnSg0-55" value="Accessテーブル&lt;div&gt;&lt;span style=&quot;color: rgb(0, 0, 0); text-align: center;&quot;&gt;tbl_xl_IcubeColSettingを参照&lt;/span&gt;&lt;/div&gt;" style="shape=callout;whiteSpace=wrap;html=1;perimeter=calloutPerimeter;position2=1;fillColor=#f5f5f5;strokeColor=#666666;direction=west;fontColor=#333333;fontSize=9;align=left;" parent="1" vertex="1">
          <mxGeometry x="312" y="490" width="160" height="60" as="geometry" />
        </mxCell>
        <mxCell id="-maxtQ19_qDZCPLkTYbK-26" value="&lt;span style=&quot;&quot;&gt;仮テーブル2は事前に用意しておく&lt;/span&gt;&lt;div style=&quot;&quot;&gt;テーブル名：&lt;span style=&quot;background-color: transparent;&quot;&gt;tbl_Temp_Icube_Cleaning&lt;/span&gt;&lt;/div&gt;" style="shape=callout;whiteSpace=wrap;html=1;perimeter=calloutPerimeter;position2=0;fillColor=#f5f5f5;strokeColor=#666666;fontColor=#333333;fontSize=9;align=left;" vertex="1" parent="1">
          <mxGeometry x="314" y="876" width="175" height="61" as="geometry" />
        </mxCell>
        <mxCell id="-maxtQ19_qDZCPLkTYbK-28" value="Accessテーブル&lt;br&gt;&lt;div&gt;&lt;span style=&quot;background-color: transparent;&quot;&gt;tbl_xl_IcubeRowSkip&lt;/span&gt;&lt;span style=&quot;color: light-dark(rgb(0, 0, 0), rgb(237, 237, 237)); text-align: center; background-color: transparent;&quot;&gt;を参照&lt;/span&gt;&lt;/div&gt;" style="shape=callout;whiteSpace=wrap;html=1;perimeter=calloutPerimeter;position2=0;fillColor=#f5f5f5;strokeColor=#666666;fontColor=#333333;fontSize=9;align=left;" vertex="1" parent="1">
          <mxGeometry x="314" y="954" width="175" height="61" as="geometry" />
        </mxCell>
        <mxCell id="-maxtQ19_qDZCPLkTYbK-29" value="Accessテーブル&lt;br&gt;&lt;div&gt;&lt;span style=&quot;background-color: transparent;&quot;&gt;tbl_xl_IcubeColSetting&lt;/span&gt;&lt;span style=&quot;background-color: transparent; color: light-dark(rgb(0, 0, 0), rgb(237, 237, 237)); text-align: center;&quot;&gt;を参照&lt;/span&gt;&lt;/div&gt;" style="shape=callout;whiteSpace=wrap;html=1;perimeter=calloutPerimeter;position2=0;fillColor=#f5f5f5;strokeColor=#666666;fontColor=#333333;fontSize=9;align=left;" vertex="1" parent="1">
          <mxGeometry x="314" y="1032" width="175" height="61" as="geometry" />
        </mxCell>
        <mxCell id="-maxtQ19_qDZCPLkTYbK-30" value="Accessテーブル&lt;br&gt;&lt;div&gt;&lt;span style=&quot;background-color: transparent;&quot;&gt;tbl_xl_IcubeColSetting&lt;/span&gt;&lt;span style=&quot;background-color: transparent; color: light-dark(rgb(0, 0, 0), rgb(237, 237, 237)); text-align: center;&quot;&gt;を参照&lt;/span&gt;&lt;/div&gt;" style="shape=callout;whiteSpace=wrap;html=1;perimeter=calloutPerimeter;position2=0;fillColor=#f5f5f5;strokeColor=#666666;fontColor=#333333;fontSize=9;align=left;" vertex="1" parent="1">
          <mxGeometry x="314" y="1104" width="175" height="61" as="geometry" />
        </mxCell>
      </root>
    </mxGraphModel>
  </diagram>
</mxfile>
